<svg baseProfile="full" height="400" version="1.1" width="800" xmlns="http://www.w3.org/2000/svg" xmlns:ev="http://www.w3.org/2001/xml-events" xmlns:xlink="http://www.w3.org/1999/xlink"><defs /><rect fill="#000000" fill-opacity="0.0" height="400" rx="20" ry="20" width="800" x="0" y="0" /><text fill="#cdd6f4" fill-opacity="1" style="font-size: 20px; font-family: Arial" text-anchor="middle" x="400.0" y="30.0">Zhuang's Repo Traffic Stats</text><line stroke="#414868" stroke-opacity="1" x1="60" x2="750" y1="320" y2="320" /><line stroke="#414868" stroke-opacity="1" x1="60" x2="60" y1="60" y2="320" /><line opacity="0.5" stroke="#414868" stroke-dasharray="5,5" stroke-opacity="1" stroke-width="1" x1="60" x2="750" y1="320.0" y2="320.0" /><text fill="#cdd6f4" fill-opacity="1" style="font-size: 12px; font-family: Arial" text-anchor="end" x="50" y="325.0">0</text><line opacity="0.5" stroke="#414868" stroke-dasharray="5,5" stroke-opacity="1" stroke-width="1" x1="60" x2="750" y1="291.1111111111111" y2="291.1111111111111" /><text fill="#cdd6f4" fill-opacity="1" style="font-size: 12px; font-family: Arial" text-anchor="end" x="50" y="296.1111111111111">10</text><line opacity="0.5" stroke="#414868" stroke-dasharray="5,5" stroke-opacity="1" stroke-width="1" x1="60" x2="750" y1="262.22222222222223" y2="262.22222222222223" /><text fill="#cdd6f4" fill-opacity="1" style="font-size: 12px; font-family: Arial" text-anchor="end" x="50" y="267.22222222222223">20</text><line opacity="0.5" stroke="#414868" stroke-dasharray="5,5" stroke-opacity="1" stroke-width="1" x1="60" x2="750" y1="233.33333333333331" y2="233.33333333333331" /><text fill="#cdd6f4" fill-opacity="1" style="font-size: 12px; font-family: Arial" text-anchor="end" x="50" y="238.33333333333331">30</text><line opacity="0.5" stroke="#414868" stroke-dasharray="5,5" stroke-opacity="1" stroke-width="1" x1="60" x2="750" y1="204.44444444444446" y2="204.44444444444446" /><text fill="#cdd6f4" fill-opacity="1" style="font-size: 12px; font-family: Arial" text-anchor="end" x="50" y="209.44444444444446">40</text><line opacity="0.5" stroke="#414868" stroke-dasharray="5,5" stroke-opacity="1" stroke-width="1" x1="60" x2="750" y1="175.55555555555557" y2="175.55555555555557" /><text fill="#cdd6f4" fill-opacity="1" style="font-size: 12px; font-family: Arial" text-anchor="end" x="50" y="180.55555555555557">50</text><line opacity="0.5" stroke="#414868" stroke-dasharray="5,5" stroke-opacity="1" stroke-width="1" x1="60" x2="750" y1="146.66666666666666" y2="146.66666666666666" /><text fill="#cdd6f4" fill-opacity="1" style="font-size: 12px; font-family: Arial" text-anchor="end" x="50" y="151.66666666666666">60</text><line opacity="0.5" stroke="#414868" stroke-dasharray="5,5" stroke-opacity="1" stroke-width="1" x1="60" x2="750" y1="117.77777777777777" y2="117.77777777777777" /><text fill="#cdd6f4" fill-opacity="1" style="font-size: 12px; font-family: Arial" text-anchor="end" x="50" y="122.77777777777777">70</text><line opacity="0.5" stroke="#414868" stroke-dasharray="5,5" stroke-opacity="1" stroke-width="1" x1="60" x2="750" y1="88.88888888888889" y2="88.88888888888889" /><text fill="#cdd6f4" fill-opacity="1" style="font-size: 12px; font-family: Arial" text-anchor="end" x="50" y="93.88888888888889">80</text><line opacity="0.5" stroke="#414868" stroke-dasharray="5,5" stroke-opacity="1" stroke-width="1" x1="60" x2="750" y1="60.0" y2="60.0" /><text fill="#cdd6f4" fill-opacity="1" style="font-size: 12px; font-family: Arial" text-anchor="end" x="50" y="65.0">90</text><line opacity="0.5" stroke="#414868" stroke-dasharray="5,5" stroke-opacity="1" stroke-width="1" x1="60.0" x2="60.0" y1="60" y2="320" /><line opacity="0.5" stroke="#414868" stroke-dasharray="5,5" stroke-opacity="1" stroke-width="1" x1="113.07692307692308" x2="113.07692307692308" y1="60" y2="320" /><line opacity="0.5" stroke="#414868" stroke-dasharray="5,5" stroke-opacity="1" stroke-width="1" x1="166.15384615384616" x2="166.15384615384616" y1="60" y2="320" /><line opacity="0.5" stroke="#414868" stroke-dasharray="5,5" stroke-opacity="1" stroke-width="1" x1="219.23076923076923" x2="219.23076923076923" y1="60" y2="320" /><line opacity="0.5" stroke="#414868" stroke-dasharray="5,5" stroke-opacity="1" stroke-width="1" x1="272.3076923076923" x2="272.3076923076923" y1="60" y2="320" /><line opacity="0.5" stroke="#414868" stroke-dasharray="5,5" stroke-opacity="1" stroke-width="1" x1="325.3846153846154" x2="325.3846153846154" y1="60" y2="320" /><line opacity="0.5" stroke="#414868" stroke-dasharray="5,5" stroke-opacity="1" stroke-width="1" x1="378.46153846153845" x2="378.46153846153845" y1="60" y2="320" /><line opacity="0.5" stroke="#414868" stroke-dasharray="5,5" stroke-opacity="1" stroke-width="1" x1="431.53846153846155" x2="431.53846153846155" y1="60" y2="320" /><line opacity="0.5" stroke="#414868" stroke-dasharray="5,5" stroke-opacity="1" stroke-width="1" x1="484.61538461538464" x2="484.61538461538464" y1="60" y2="320" /><line opacity="0.5" stroke="#414868" stroke-dasharray="5,5" stroke-opacity="1" stroke-width="1" x1="537.6923076923077" x2="537.6923076923077" y1="60" y2="320" /><line opacity="0.5" stroke="#414868" stroke-dasharray="5,5" stroke-opacity="1" stroke-width="1" x1="590.7692307692308" x2="590.7692307692308" y1="60" y2="320" /><line opacity="0.5" stroke="#414868" stroke-dasharray="5,5" stroke-opacity="1" stroke-width="1" x1="643.8461538461539" x2="643.8461538461539" y1="60" y2="320" /><line opacity="0.5" stroke="#414868" stroke-dasharray="5,5" stroke-opacity="1" stroke-width="1" x1="696.9230769230769" x2="696.9230769230769" y1="60" y2="320" /><line opacity="0.5" stroke="#414868" stroke-dasharray="5,5" stroke-opacity="1" stroke-width="1" x1="750.0" x2="750.0" y1="60" y2="320" /><circle cx="60.0" cy="282.44444444444446" fill="#8aadf4" fill-opacity="1" r="4" /><circle cx="113.07692307692308" cy="320.0" fill="#8aadf4" fill-opacity="1" r="4" /><circle cx="166.15384615384616" cy="311.3333333333333" fill="#8aadf4" fill-opacity="1" r="4" /><circle cx="219.23076923076923" cy="308.44444444444446" fill="#8aadf4" fill-opacity="1" r="4" /><circle cx="272.3076923076923" cy="314.22222222222223" fill="#8aadf4" fill-opacity="1" r="4" /><circle cx="325.3846153846154" cy="305.55555555555554" fill="#8aadf4" fill-opacity="1" r="4" /><circle cx="378.46153846153845" cy="320.0" fill="#8aadf4" fill-opacity="1" r="4" /><circle cx="431.53846153846155" cy="80.22222222222223" fill="#8aadf4" fill-opacity="1" r="4" /><circle cx="484.61538461538464" cy="270.8888888888889" fill="#8aadf4" fill-opacity="1" r="4" /><circle cx="537.6923076923077" cy="299.77777777777777" fill="#8aadf4" fill-opacity="1" r="4" /><circle cx="590.7692307692308" cy="296.8888888888889" fill="#8aadf4" fill-opacity="1" r="4" /><circle cx="643.8461538461539" cy="285.3333333333333" fill="#8aadf4" fill-opacity="1" r="4" /><circle cx="696.9230769230769" cy="184.22222222222223" fill="#8aadf4" fill-opacity="1" r="4" /><circle cx="750.0" cy="265.1111111111111" fill="#8aadf4" fill-opacity="1" r="4" /><path d="M 60.0,282.44444444444446 C 77.6923076923077,282.44444444444446 95.38461538461539,320.0 113.07692307692308,320.0 C 130.76923076923077,320.0 148.46153846153845,311.3333333333333 166.15384615384616,311.3333333333333 C 183.84615384615384,311.3333333333333 201.53846153846155,308.44444444444446 219.23076923076923,308.44444444444446 C 236.92307692307693,308.44444444444446 254.6153846153846,314.22222222222223 272.3076923076923,314.22222222222223 C 290.0,314.22222222222223 307.69230769230774,305.55555555555554 325.3846153846154,305.55555555555554 C 343.0769230769231,305.55555555555554 360.7692307692308,320.0 378.46153846153845,320.0 C 396.15384615384613,320.0 413.84615384615387,80.22222222222223 431.53846153846155,80.22222222222223 C 449.2307692307692,80.22222222222223 466.92307692307696,270.8888888888889 484.61538461538464,270.8888888888889 C 502.3076923076923,270.8888888888889 520.0,299.77777777777777 537.6923076923077,299.77777777777777 C 555.3846153846155,299.77777777777777 573.0769230769231,296.8888888888889 590.7692307692308,296.8888888888889 C 608.4615384615386,296.8888888888889 626.1538461538462,285.3333333333333 643.8461538461539,285.3333333333333 C 661.5384615384615,285.3333333333333 679.2307692307693,184.22222222222223 696.9230769230769,184.22222222222223 C 714.6153846153846,184.22222222222223 732.3076923076923,265.1111111111111 750.0,265.1111111111111" fill="none" stroke="#8aadf4" stroke-dasharray="1172.2557835645127" stroke-dashoffset="1172.2557835645127" stroke-linecap="round" stroke-linejoin="round" stroke-opacity="0.4" stroke-width="4"><animate attributeName="stroke-dashoffset" dur="2s" fill="freeze" from="1172.2557835645127" repeatCount="1" to="0" /></path><circle cx="60.0" cy="270.8888888888889" fill="#cba6f7" fill-opacity="1" r="4" /><circle cx="113.07692307692308" cy="285.3333333333333" fill="#cba6f7" fill-opacity="1" r="4" /><circle cx="166.15384615384616" cy="305.55555555555554" fill="#cba6f7" fill-opacity="1" r="4" /><circle cx="219.23076923076923" cy="308.44444444444446" fill="#cba6f7" fill-opacity="1" r="4" /><circle cx="272.3076923076923" cy="282.44444444444446" fill="#cba6f7" fill-opacity="1" r="4" /><circle cx="325.3846153846154" cy="308.44444444444446" fill="#cba6f7" fill-opacity="1" r="4" /><circle cx="378.46153846153845" cy="285.3333333333333" fill="#cba6f7" fill-opacity="1" r="4" /><circle cx="431.53846153846155" cy="317.1111111111111" fill="#cba6f7" fill-opacity="1" r="4" /><circle cx="484.61538461538464" cy="195.77777777777777" fill="#cba6f7" fill-opacity="1" r="4" /><circle cx="537.6923076923077" cy="291.1111111111111" fill="#cba6f7" fill-opacity="1" r="4" /><circle cx="590.7692307692308" cy="288.22222222222223" fill="#cba6f7" fill-opacity="1" r="4" /><circle cx="643.8461538461539" cy="311.3333333333333" fill="#cba6f7" fill-opacity="1" r="4" /><circle cx="696.9230769230769" cy="308.44444444444446" fill="#cba6f7" fill-opacity="1" r="4" /><circle cx="750.0" cy="259.3333333333333" fill="#cba6f7" fill-opacity="1" r="4" /><path d="M 60.0,270.8888888888889 C 77.6923076923077,270.8888888888889 95.38461538461539,285.3333333333333 113.07692307692308,285.3333333333333 C 130.76923076923077,285.3333333333333 148.46153846153845,305.55555555555554 166.15384615384616,305.55555555555554 C 183.84615384615384,305.55555555555554 201.53846153846155,308.44444444444446 219.23076923076923,308.44444444444446 C 236.92307692307693,308.44444444444446 254.6153846153846,282.44444444444446 272.3076923076923,282.44444444444446 C 290.0,282.44444444444446 307.69230769230774,308.44444444444446 325.3846153846154,308.44444444444446 C 343.0769230769231,308.44444444444446 360.7692307692308,285.3333333333333 378.46153846153845,285.3333333333333 C 396.15384615384613,285.3333333333333 413.84615384615387,317.1111111111111 431.53846153846155,317.1111111111111 C 449.2307692307692,317.1111111111111 466.92307692307696,195.77777777777777 484.61538461538464,195.77777777777777 C 502.3076923076923,195.77777777777777 520.0,291.1111111111111 537.6923076923077,291.1111111111111 C 555.3846153846155,291.1111111111111 573.0769230769231,288.22222222222223 590.7692307692308,288.22222222222223 C 608.4615384615386,288.22222222222223 626.1538461538462,311.3333333333333 643.8461538461539,311.3333333333333 C 661.5384615384615,311.3333333333333 679.2307692307693,308.44444444444446 696.9230769230769,308.44444444444446 C 714.6153846153846,308.44444444444446 732.3076923076923,259.3333333333333 750.0,259.3333333333333" fill="none" stroke="#cba6f7" stroke-dasharray="895.3457370158222" stroke-dashoffset="895.3457370158222" stroke-linecap="round" stroke-linejoin="round" stroke-opacity="0.4" stroke-width="4"><animate attributeName="stroke-dashoffset" dur="2s" fill="freeze" from="895.3457370158222" repeatCount="1" to="0" /></path><text fill="#cdd6f4" fill-opacity="1" style="font-size: 12px; font-family: Arial" transform="rotate(45, 60.0, 340)" x="60.0" y="340">23</text><text fill="#cdd6f4" fill-opacity="1" style="font-size: 12px; font-family: Arial" transform="rotate(45, 113.07692307692308, 340)" x="113.07692307692308" y="340">24</text><text fill="#cdd6f4" fill-opacity="1" style="font-size: 12px; font-family: Arial" transform="rotate(45, 166.15384615384616, 340)" x="166.15384615384616" y="340">25</text><text fill="#cdd6f4" fill-opacity="1" style="font-size: 12px; font-family: Arial" transform="rotate(45, 219.23076923076923, 340)" x="219.23076923076923" y="340">26</text><text fill="#cdd6f4" fill-opacity="1" style="font-size: 12px; font-family: Arial" transform="rotate(45, 272.3076923076923, 340)" x="272.3076923076923" y="340">27</text><text fill="#cdd6f4" fill-opacity="1" style="font-size: 12px; font-family: Arial" transform="rotate(45, 325.3846153846154, 340)" x="325.3846153846154" y="340">28</text><text fill="#cdd6f4" fill-opacity="1" style="font-size: 12px; font-family: Arial" transform="rotate(45, 378.46153846153845, 340)" x="378.46153846153845" y="340">29</text><text fill="#cdd6f4" fill-opacity="1" style="font-size: 12px; font-family: Arial" transform="rotate(45, 431.53846153846155, 340)" x="431.53846153846155" y="340">30</text><text fill="#cdd6f4" fill-opacity="1" style="font-size: 12px; font-family: Arial" transform="rotate(45, 484.61538461538464, 340)" x="484.61538461538464" y="340">31</text><text fill="#cdd6f4" fill-opacity="1" style="font-size: 12px; font-family: Arial" transform="rotate(45, 537.6923076923077, 340)" x="537.6923076923077" y="340">01</text><text fill="#cdd6f4" fill-opacity="1" style="font-size: 12px; font-family: Arial" transform="rotate(45, 590.7692307692308, 340)" x="590.7692307692308" y="340">02</text><text fill="#cdd6f4" fill-opacity="1" style="font-size: 12px; font-family: Arial" transform="rotate(45, 643.8461538461539, 340)" x="643.8461538461539" y="340">03</text><text fill="#cdd6f4" fill-opacity="1" style="font-size: 12px; font-family: Arial" transform="rotate(45, 696.9230769230769, 340)" x="696.9230769230769" y="340">04</text><text fill="#cdd6f4" fill-opacity="1" style="font-size: 12px; font-family: Arial" transform="rotate(45, 750.0, 340)" x="750.0" y="340">05</text><text fill="#cdd6f4" fill-opacity="1" style="font-size: 14px; font-family: Arial" text-anchor="middle" x="400.0" y="373.3333333333333">Days</text><text fill="#cdd6f4" fill-opacity="1" style="font-size: 14px; font-family: Arial" text-anchor="middle" transform="rotate(-90, 20.0, 200.0)" x="20.0" y="200.0">Count</text><line stroke="#8aadf4" stroke-opacity="0.4" stroke-width="3" x1="340.0" x2="360.0" y1="388.3333333333333" y2="388.3333333333333" /><text fill="#cdd6f4" fill-opacity="1" style="font-size: 12px; font-family: Arial" x="370.0" y="393.3333333333333">Clones</text><line stroke="#cba6f7" stroke-opacity="0.4" stroke-width="3" x1="440.0" x2="460.0" y1="388.3333333333333" y2="388.3333333333333" /><text fill="#cdd6f4" fill-opacity="1" style="font-size: 12px; font-family: Arial" x="470.0" y="393.3333333333333">Views</text></svg>